<svg id="Capa_1" data-name="Capa 1" xmlns="http://www.w3.org/2000/svg" viewBox="0 0 60 67.04"><path d="M7.21,2.22C5.55,4.22,2,12.08,1,16c-.92,3.53-.7,5.28,1,8.21C3.57,26.68,6.6,29.68,12,34c4.15,3.35,9.25,7.89,13.17,11.67,5.83,5.64,7,5.5,1.69-.21a45.15,45.15,0,0,1-5.17-6.57c-1.59-2.72-6.21-8.21-10.58-12.53C7.81,23.18,7,21.43,7.21,18.5a15.8,15.8,0,0,1,.89-3.93c.73-1.92.67-2.64-.16-1.89s-1.79,4.21-1.79,6.54c0,3,.74,4.56,3.67,7.71,1.75,1.92,2.45,3,2.71,4a5.88,5.88,0,0,1,.25,1.79c-.28.92-8.67-7.32-10.2-10-1.14-2.07-1.18-4.14-.06-7.82.92-3.1,3.89-9.75,5.07-11.32l.79-1.07,1,1.25a3.82,3.82,0,0,1,.48,4.29c-.89,1.75-.64,2.25,3.19,6.35,4.17,4.5,5.45,5.61,5.73,5.07.13-.21-1.53-2.28-3.66-4.57a59.93,59.93,0,0,1-4.18-4.78c-.38-.82.29-2.43,1-2.43a4.51,4.51,0,0,0,1.82-1.25C15.21,5,15.88,4.83,15.59,6a21.28,21.28,0,0,0-.42,2.78c-.16,1.79-.09,2.11.71,3.14.95,1.29,2.07,1.54,2.07.47,0-.68.92-1.82,1-1.25,0,.18.06,1.21.09,2.32l0,2,2.81,3.32c3.28,3.92,4.17,6.14,1.94,4.82-1.37-.79-1.37,0,0,1.53a5.57,5.57,0,0,1,1.34,2.75,15.4,15.4,0,0,0,1,3.11l.8,1.67-.67,1A4.66,4.66,0,0,0,26,37.82a41.42,41.42,0,0,0,3.19,3.89c3.18,3.5,3.76,4.85,1.4,3.28-1.79-1.14-1.95-.5-.35,1.25a10.67,10.67,0,0,1,1.5,2.21c.31.93.28,1.22-.51,2.43-1.09,1.79-.93,2.39,1.11,4.43,4.24,4.25,13.32,7.39,17.25,6l1.3-.5,2.49,3c2.36,2.82,2.52,3,3.54,2.71a3,3,0,0,0,2.51-3.07c0-1.57-.6-2.28-3.47-4a6.17,6.17,0,0,1-2.26-1.89c-1.56-4.61-2.11-5.25-4.37-5.14-1.78.07-2.58-.43-5.74-3.79l-1.69-1.75V36l-3.57-3.71c-2-2.07-5.48-5.64-7.81-7.93S26,19.64,25.79,19s-.7-1.15-1-1c-.6.25-1.27-.82-1.27-2.11,0-1-.13-1.14-.9-1s-.89-.07-1.17-1.25a11.72,11.72,0,0,1-.36-2.43c0-2-.54-2.25-2.86-1.57-.42.11-.45-.32-.35-3,.12-3.54-.16-4-2-3.14-2.2,1-2.58.89-3.67-.83C10.62-.06,9.21-.17,7.21,2.22ZM28,25.5c1.31,1.07,9.37,9.39,11.28,11.64,1.12,1.32,1.12,1.35,1.12,4.64v3.28L39,47.53c-1.33,2.28-1.43,2.64-1.4,4.71,0,1.25-.09,2.25-.28,2.25a13,13,0,0,1-2.36-1.64L32.86,51.2l.26-3.46c.57-8.39.25-9.67-3.51-14.32-2.83-3.46-3.22-4.17-3.5-6.49C25.76,24.21,26.11,24,28,25.5ZM29.9,35.71C31.65,37.82,33.25,42,32.29,42c-1.18,0-4.37-3.21-5.16-5.17a1.27,1.27,0,0,1,.22-1.61C28.18,34.21,28.72,34.32,29.9,35.71Zm11,15.53a28.2,28.2,0,0,1,3,2.89c1.53,1.75,1.56,1.86,1,2.36a3.63,3.63,0,0,1-4-.32c-2-1.54-3.16-4.4-2.14-5.54C39.24,50.06,39.34,50.06,40.93,51.24Zm-7.36,2.21c3.34,2.54,7.81,4.61,9.88,4.61,1.24,0,2.58-.86,4.91-3.07,1.53-1.47,2.16-1.5,3-.29s.86,1.72-.51,3.39-2.58,2.47-4,2.47c-1.79,0-7.21-1.72-9.63-3.07-2.9-1.57-6.6-5.14-5.32-5.14A9.05,9.05,0,0,1,33.57,53.45ZM53.65,59.7c.76.75.89,1,.6,1.43s-.51.39-1.24,0c-1.08-.64-1.4-1.1-1.15-1.78S52.5,58.63,53.65,59.7Zm3.76,2.14a1.64,1.64,0,0,1-.83,3c-1.85,0-2.52-1.36-1.34-2.78C56,61.13,56.45,61.09,57.41,61.84Z"/><path d="M36.34,42.56a1.43,1.43,0,0,0-.22.82,2.78,2.78,0,0,1-.86,1.36l-.9.79,1,.25a1.55,1.55,0,0,1,1.21.89c.35,1.18.8.36.8-1.43S36.79,42.06,36.34,42.56Z"/><path d="M38.25,44.35a.57.57,0,0,0,.45.86c.16,0,.28-.25.28-.54C39,44.13,38.6,44,38.25,44.35Z"/><path d="M20.4,21.14a.57.57,0,0,0,.45.86c.16,0,.28-.25.28-.54C21.13,20.93,20.75,20.75,20.4,21.14Z"/><path d="M25.92,42.17a.48.48,0,1,0,.47-.53A.52.52,0,0,0,25.92,42.17Z"/></svg>