<?xml version="1.0" standalone="no"?>
<!DOCTYPE svg PUBLIC "-//W3C//DTD SVG 20010904//EN"
 "http://www.w3.org/TR/2001/REC-SVG-20010904/DTD/svg10.dtd">
<svg version="1.0" xmlns="http://www.w3.org/2000/svg"
 width="139.000000pt" height="139.000000pt" viewBox="0 0 139.000000 139.000000"
 preserveAspectRatio="xMidYMid meet">
<metadata>
Created by potrace 1.11, written by Peter Selinger 2001-2013
</metadata>
<g transform="translate(0.000000,139.000000) scale(0.100000,-0.100000)"
fill="#000000" stroke="none">
<path d="M183 1338 c-65 -71 -153 -267 -153 -344 0 -24 6 -59 14 -77 18 -43
120 -138 241 -224 113 -81 203 -152 337 -267 79 -67 92 -83 90 -106 -6 -52
125 -140 260 -176 66 -17 160 -18 177 -2 10 11 24 1 70 -49 46 -51 63 -63 87
-63 38 0 64 27 64 67 0 34 -19 54 -70 73 -50 19 -70 39 -70 70 0 16 -11 37
-29 54 -25 24 -35 27 -63 22 -30 -5 -39 -1 -101 55 l-67 61 0 107 0 108 -77
74 c-43 41 -126 117 -185 169 -61 53 -108 103 -108 112 0 11 -8 18 -20 18 -16
0 -20 7 -20 35 0 34 -12 46 -25 25 -12 -20 -25 2 -25 41 0 60 -15 82 -51 75
l-29 -5 0 60 c0 70 -15 83 -64 55 l-31 -18 -35 41 c-44 51 -74 54 -117 9z"/>
</g>
</svg>
